<svg xmlns="http://www.w3.org/2000/svg" width="400" height="400" viewBox="0 0 400 400"><g fill-rule="evenodd"><path d="M129.872 42.261c-.149.15-.272 3.918-.272 8.373 0 4.455-.109 8.385-.243 8.733-.219.571-4.133.633-40.2.633H49.2v22.796l40.1.102 40.1.102.109 6.9.11 6.9H154.8V82.797l45.3.101 45.3.102.109 6.906.11 6.905 12.69-.105L271 96.6l.109-6.898.11-6.898 40.09-.102L351.4 82.6V60.2l-40.1-.102-40.1-.102v-8.755c0-7.615-.082-8.787-.633-8.998-.937-.36-23.885-.283-24.459.082-.358.227-.521 2.641-.6 8.894L245.4 59.8l-45.292.102-45.293.101-.107-8.901-.108-8.902-12.228-.106c-6.725-.058-12.35.017-12.5.167M78 142.801v35.2l124.1-.1 124.1-.101.102-35.1.102-35.1H78v35.201m75-.001v15.4l-25.975.103c-20.514.081-26.041-.003-26.293-.4-.386-.607-.446-30.056-.062-30.439.148-.148 11.983-.223 26.3-.167l26.03.103v15.4m74.2 0v15.6h-52v-31.2h52v15.6m75.905-.1L303 158.2h-53.6l-.105-14.999c-.058-8.249-.018-15.224.087-15.5.152-.395 5.885-.501 27.01-.501h26.817l-.104 15.5M56.267 195.467c-.333.333-.346 51.598-.013 52.839l.242.906 11.852-.106L80.2 249l.2-17 .2-17H321l.104 17.5.104 17.5H345.2v-54.8H200.867c-79.384 0-144.454.12-144.6.267M174 219.52c-.33.105-1.5.945-2.6 1.867-17.758 14.887-47.718 31.901-72.3 41.058-1.705.635-4.585 1.707-6.4 2.381-1.815.674-6 2.13-9.3 3.234-3.3 1.104-6.155 2.157-6.345 2.339-.262.251 10.791 14.138 13.992 17.579.628.675 4.52-.505 13.253-4.016l1.9-.762 1.9-.76c.495-.198 1.753-.738 2.796-1.2 1.042-.462 1.982-.84 2.087-.84.914 0 21.672-9.819 25.535-12.078l1.917-1.122h65.983c36.29 0 65.982.098 65.982.217 0 3.686-21.194 22.029-34.2 29.599-1.1.64-2.54 1.482-3.2 1.872-5.794 3.416-24.318 11.759-30.649 13.804l-1.887.609-3.332-2.403c-11.637-8.391-30.491-19.794-48.035-29.05-4.728-2.494-3.185-3.292-14.023 7.252-5.903 5.741-5.831 5.297-1.272 7.9 8.353 4.769 15.26 8.983 23.665 14.44 11.514 7.476 15.091 10.168 14.224 10.704-.532.329-11.972 2.925-19.491 4.424-11.903 2.372-17.497 3.341-29.002 5.023-6.535.955-8.371 1.211-11.498 1.599-8.97 1.114-9.675 1.193-21.3 2.387-6.963.715-20.543 1.841-26.988 2.238-5.038.311-4.89.156-3.166 3.313l2.607 4.772 2.294 4.2c.631 1.155 1.826 3.36 2.655 4.9.828 1.54 1.635 2.943 1.791 3.119.345.386 11.003-.435 27.807-2.143 6.111-.621 16.024-1.8 20-2.379 1.32-.192 3.84-.551 5.6-.797a423.672 423.672 0 0 0 10.7-1.616l4.7-.784c10.592-1.765 24.572-4.633 35.108-7.203 6.716-1.638 19.02-5.074 22.892-6.392 1.21-.413 3.1-1.02 4.2-1.35 3.379-1.014 14.118-4.933 17.2-6.277.44-.192 3.41-1.453 6.6-2.803 5.687-2.405 16.244-7.63 20.2-9.997 1.1-.658 2.27-1.314 2.6-1.459 2.035-.891 17.631-11.59 18.8-12.897.11-.123 1.73-1.511 3.6-3.084 10.679-8.985 21.121-21.979 27.112-33.738.379-.744.481-3.353.399-10.2l-.111-9.2-62.1-.101c-37.439-.061-62.1-.248-62.1-.469 0-.203 2.295-2.314 5.1-4.692 6.234-5.285 16.972-15.723 16.777-16.308-.133-.399-2.561-.956-15.677-3.594-2.86-.576-5.47-1.105-5.8-1.176a2.786 2.786 0 0 0-1.2.06" fill="#050505"/><path d="M0 200v200h400V0H0v200M154.708 51.102l.107 8.901 45.293-.101L245.4 59.8l.108-8.581c.079-6.253.242-8.667.6-8.894.574-.365 23.522-.442 24.459-.082.551.211.633 1.383.633 8.998v8.755l40.1.102 40.1.102v22.4l-40.091.102-40.09.102-.11 6.898L271 96.6l-12.691.106-12.69.105-.11-6.905L245.4 83l-45.3-.102-45.3-.101V96.8h-25.181l-.11-6.9-.109-6.9-40.1-.102-40.1-.102V60h39.957c36.067 0 39.981-.062 40.2-.633.134-.348.243-4.278.243-8.733 0-4.455.123-8.223.272-8.373.15-.15 5.775-.225 12.5-.167l12.228.106.108 8.902M326.302 142.7l-.102 35.1-124.1.101-124.1.1V107.6h248.404l-.102 35.1M100.67 127.464c-.384.383-.324 29.832.062 30.439.252.397 5.779.481 26.293.4L153 158.2v-30.8l-26.03-.103c-14.317-.056-26.152.019-26.3.167M175.2 142.8v15.6h52v-31.2h-52v15.6m74.182-15.099c-.105.276-.145 7.251-.087 15.5l.105 14.999H303l.105-15.5.104-15.5h-26.817c-21.125 0-26.858.106-27.01.501M345.2 222.6V250h-23.992l-.104-17.5L321 215H80.6l-.2 17-.2 17-11.852.106-11.852.106-.242-.906c-.333-1.241-.32-52.506.013-52.839.146-.147 65.216-.267 144.6-.267H345.2v27.4M181 220.636c13.116 2.638 15.544 3.195 15.677 3.594.195.585-10.543 11.023-16.777 16.308-2.805 2.378-5.1 4.489-5.1 4.692 0 .221 24.661.408 62.1.469l62.1.101.111 9.2c.082 6.847-.02 9.456-.399 10.2-5.991 11.759-16.433 24.753-27.112 33.738-1.87 1.573-3.49 2.961-3.6 3.084-1.169 1.307-16.765 12.006-18.8 12.897-.33.145-1.5.801-2.6 1.459-3.956 2.367-14.513 7.592-20.2 9.997-3.19 1.35-6.16 2.611-6.6 2.803-3.082 1.344-13.821 5.263-17.2 6.277-1.1.33-2.99.937-4.2 1.35-9.648 3.286-26.742 7.557-44 10.995-6.856 1.365-9.158 1.793-14 2.6l-4.7.784A423.672 423.672 0 0 1 125 352.8c-1.76.246-4.28.605-5.6.797-3.976.579-13.889 1.758-20 2.379-16.804 1.708-27.462 2.529-27.807 2.143-.156-.176-.963-1.579-1.791-3.119-.829-1.54-2.024-3.745-2.655-4.9l-2.294-4.2-2.607-4.772c-1.724-3.157-1.872-3.002 3.166-3.313 6.445-.397 20.025-1.523 26.988-2.238 11.625-1.194 12.33-1.273 21.3-2.387 3.127-.388 4.963-.644 11.498-1.599 8.114-1.186 12.025-1.822 19.402-3.155 9.328-1.685 28.263-5.78 29.091-6.292.867-.536-2.71-3.228-14.224-10.704-8.405-5.457-15.312-9.671-23.665-14.44-4.559-2.603-4.631-2.159 1.272-7.9 10.838-10.544 9.295-9.746 14.023-7.252 17.544 9.256 36.398 20.659 48.035 29.05l3.332 2.403 1.887-.609c6.331-2.045 24.855-10.388 30.649-13.804.66-.39 2.1-1.232 3.2-1.872 13.006-7.57 34.2-25.913 34.2-29.599 0-.119-29.692-.217-65.982-.217h-65.983l-1.917 1.122c-3.863 2.259-24.621 12.078-25.535 12.078-.105 0-1.045.378-2.087.84a113.961 113.961 0 0 1-2.796 1.2l-1.9.76-1.9.762c-8.733 3.511-12.625 4.691-13.253 4.016-3.201-3.441-14.254-17.328-13.992-17.579.19-.182 3.045-1.235 6.345-2.339 3.3-1.104 7.485-2.56 9.3-3.234 1.815-.674 4.695-1.746 6.4-2.381 24.582-9.157 54.542-26.171 72.3-41.058 2.117-1.775 2.83-2.137 3.8-1.927.33.071 2.94.6 5.8 1.176" fill="#fbfbfb"/></g></svg>