<svg id="svg" version="1.1" xmlns="http://www.w3.org/2000/svg" xmlns:xlink="http://www.w3.org/1999/xlink" width="400" height="400" viewBox="0, 0, 400,400"><g id="svgg"><path id="path0" d="M129.688 51.172 L 129.688 60.156 89.453 60.156 L 49.219 60.156 49.219 71.484 L 49.219 82.813 89.453 82.813 L 129.688 82.813 129.688 89.844 L 129.688 96.875 142.188 96.875 L 154.688 96.875 154.688 89.844 L 154.688 82.813 200.000 82.813 L 245.313 82.813 245.313 89.844 L 245.313 96.875 258.203 96.875 L 271.094 96.875 271.094 89.844 L 271.094 82.813 311.328 82.813 L 351.563 82.813 351.563 71.484 L 351.563 60.156 311.328 60.156 L 271.094 60.156 271.094 51.172 L 271.094 42.188 258.203 42.188 L 245.313 42.188 245.313 51.172 L 245.313 60.156 200.000 60.156 L 154.688 60.156 154.688 51.172 L 154.688 42.188 142.188 42.188 L 129.688 42.188 129.688 51.172 M78.125 142.969 L 78.125 178.125 202.344 178.125 L 326.563 178.125 326.563 142.969 L 326.563 107.813 202.344 107.813 L 78.125 107.813 78.125 142.969 M153.125 142.969 L 153.125 158.594 126.953 158.594 L 100.781 158.594 100.781 142.969 L 100.781 127.344 126.953 127.344 L 153.125 127.344 153.125 142.969 M227.344 142.969 L 227.344 158.594 201.172 158.594 L 175.000 158.594 175.000 142.969 L 175.000 127.344 201.172 127.344 L 227.344 127.344 227.344 142.969 M303.125 142.969 L 303.125 158.594 276.172 158.594 L 249.219 158.594 249.219 142.969 L 249.219 127.344 276.172 127.344 L 303.125 127.344 303.125 142.969 M56.250 222.266 L 56.250 249.219 68.359 249.219 L 80.469 249.219 80.469 232.031 L 80.469 214.844 200.781 214.844 L 321.094 214.844 321.094 232.422 L 321.094 250.000 333.203 250.000 L 345.313 250.000 345.313 222.656 L 345.313 195.313 200.781 195.313 L 56.250 195.313 56.250 222.266 M168.654 223.518 C 146.615 241.152,113.427 258.432,81.831 268.724 L 76.552 270.443 78.315 272.652 C 86.479 282.877,91.177 288.207,92.055 288.241 C 94.061 288.319,119.255 277.889,129.928 272.562 L 140.715 267.179 206.881 267.378 L 273.047 267.578 263.672 276.997 C 249.872 290.862,232.534 301.704,210.082 310.509 L 202.585 313.449 197.191 309.634 C 185.694 301.502,162.735 287.680,150.137 281.306 L 146.758 279.596 139.395 286.817 C 130.575 295.466,130.677 294.148,138.482 298.575 C 154.335 307.569,174.921 321.349,173.664 322.126 C 168.639 325.231,113.648 333.855,83.203 336.312 C 74.609 337.005,66.073 337.755,64.233 337.979 L 60.888 338.384 65.706 347.513 C 72.120 359.662,70.195 358.644,84.375 357.388 C 198.162 347.313,267.589 318.604,296.082 269.845 L 299.219 264.478 299.219 254.895 L 299.219 245.313 236.914 245.291 L 174.609 245.270 179.688 240.816 C 186.518 234.826,196.875 224.844,196.875 224.250 C 196.875 223.821,176.505 219.531,174.469 219.531 C 174.011 219.531,171.395 221.325,168.654 223.518 " stroke="none" fill="#000000" fill-rule="evenodd"></path></g></svg>